<?xml version="1.0" standalone="no"?>
<!DOCTYPE svg PUBLIC "-//W3C//DTD SVG 20010904//EN"
 "http://www.w3.org/TR/2001/REC-SVG-20010904/DTD/svg10.dtd">
<svg version="1.0" xmlns="http://www.w3.org/2000/svg"
 width="14168.000000pt" height="15434.000000pt" viewBox="0 0 14168.000000 15434.000000"
 preserveAspectRatio="xMidYMid meet">
<metadata>
Created by potrace 1.15, written by Peter Selinger 2001-2017
</metadata>
<g transform="translate(0.000000,15434.000000) scale(0.100000,-0.100000)"
fill="#000000" stroke="none">
<path d="M83800 102723 c-1177 -52 -2527 -413 -3650 -974 -708 -354 -1259
-740 -1777 -1243 -1051 -1021 -1738 -2398 -2087 -4181 -84 -430 -138 -814
-186 -1325 -48 -522 -80 -733 -136 -900 -47 -140 -56 -150 -214 -231 -502
-257 -817 -597 -949 -1024 -56 -182 -74 -314 -74 -555 0 -255 19 -420 94 -815
81 -428 107 -590 129 -800 32 -305 81 -529 176 -791 248 -689 739 -1328 1414
-1843 548 -419 1226 -728 1870 -855 69 -13 235 -38 370 -56 262 -33 652 -95
840 -135 l115 -24 -450 5 c-247 2 -1624 12 -3060 20 -1435 9 -2611 17 -2612
18 -2 2 -21 101 -43 222 -23 120 -90 467 -150 769 -60 303 -127 651 -149 775
-190 1051 -245 1770 -186 2455 84 971 396 1788 990 2595 51 69 102 144 114
167 69 137 68 322 -4 463 -72 142 -265 271 -404 270 -20 -1 -205 -56 -411
-124 -248 -81 -377 -119 -381 -112 -4 6 -131 378 -284 826 -153 448 -288 835
-300 860 -63 125 -191 232 -327 275 -96 30 -244 34 -342 9 -190 -49 -348 -201
-401 -388 -10 -32 -22 -109 -29 -172 l-11 -113 -235 219 c-129 121 -257 235
-285 253 -250 169 -595 77 -728 -193 -46 -93 -55 -160 -46 -340 4 -74 8 -164
8 -200 l1 -65 -177 88 c-144 72 -192 91 -250 99 -186 29 -383 -60 -484 -220
-86 -135 -90 -283 -16 -527 25 -82 44 -152 42 -154 -3 -2 -40 6 -82 18 -280
77 -372 73 -496 -24 -202 -159 -263 -438 -148 -670 32 -63 66 -108 162 -210
461 -494 780 -1028 998 -1669 177 -520 274 -1061 323 -1801 21 -309 15 -1315
-11 -1970 -51 -1301 -35 -2122 70 -3600 l21 -300 78 -250 c42 -137 126 -410
186 -605 l109 -355 66 -100 c37 -55 91 -129 119 -163 28 -35 49 -66 46 -69 -5
-6 -680 -176 -743 -188 l-36 -6 6 46 c14 95 47 437 62 615 49 623 45 1305 -10
1840 -153 1475 -683 2492 -1573 3023 -353 210 -750 338 -1227 393 -184 22
-663 25 -865 6 -539 -52 -1159 -187 -1719 -376 -84 -29 -227 -64 -380 -95
-587 -119 -1006 -245 -1571 -474 -433 -174 -759 -266 -1130 -319 -149 -21
-615 -18 -760 5 -830 130 -1554 627 -2290 1572 -374 479 -644 787 -1365 1555
-121 129 -303 324 -403 432 -208 224 -222 234 -339 226 -60 -4 -91 -15 -268
-97 -110 -51 -216 -105 -235 -120 -52 -41 -76 -101 -90 -216 -6 -55 -27 -195
-45 -312 -67 -417 -68 -623 -5 -847 101 -359 409 -1328 792 -2491 366 -1109
478 -1456 639 -1964 195 -614 266 -783 434 -1036 240 -359 557 -574 928 -629
372 -56 763 44 1232 314 484 279 972 438 1545 506 74 8 257 18 405 21 438 9
781 -22 1340 -120 l129 -23 -144 -58 c-202 -81 -487 -222 -600 -296 -123 -81
-247 -186 -310 -261 -27 -33 -94 -126 -149 -207 -421 -623 -904 -978 -1493
-1096 -199 -41 -300 -50 -533 -49 -242 0 -413 16 -692 63 -325 56 -522 104
-1263 310 -1147 319 -2490 680 -2528 680 -58 0 -122 -26 -164 -67 -21 -20 -91
-118 -157 -217 -166 -250 -174 -295 -78 -457 24 -41 97 -173 162 -294 282
-526 355 -619 720 -923 392 -327 710 -578 1795 -1417 476 -368 949 -744 1270
-1009 446 -369 711 -551 1003 -691 147 -70 273 -116 404 -146 115 -26 332 -36
444 -19 378 55 715 311 1022 777 188 285 361 635 656 1324 l62 146 149 148
148 148 -73 -229 c-604 -1899 -805 -3321 -654 -4634 216 -1877 1189 -3293
2803 -4075 677 -329 1421 -538 2296 -644 481 -59 873 -75 1675 -68 623 6 758
10 1225 42 3268 225 6331 1250 9175 3070 1068 684 2100 1480 3155 2433 988
893 1696 1815 2215 2884 332 685 556 1361 735 2218 202 969 470 1759 870 2565
468 943 1052 1755 1805 2511 239 240 394 382 688 631 270 229 424 369 637 583
461 459 917 1006 1377 1650 911 1275 1431 2616 1569 4045 22 227 30 873 15
1117 -93 1459 -601 2854 -1519 4168 -1171 1677 -2605 2845 -4202 3425 -785
285 -1633 430 -2465 423 -115 -1 -239 -3 -275 -5z m940 -447 c861 -88 1603
-302 2365 -681 726 -361 1383 -835 2018 -1455 638 -622 1273 -1440 1706 -2195
109 -190 295 -557 382 -751 740 -1668 837 -3429 283 -5126 -327 -1001 -829
-1884 -1668 -2933 -463 -580 -900 -1033 -1411 -1465 -723 -611 -1282 -1206
-1777 -1890 -848 -1174 -1431 -2518 -1743 -4020 -65 -313 -108 -495 -165 -705
-341 -1244 -912 -2320 -1749 -3294 -329 -384 -698 -746 -1284 -1259 -3353
-2937 -7068 -4616 -11112 -5021 -1081 -109 -2296 -130 -3145 -55 -740 65
-1427 220 -2040 461 -297 117 -732 342 -970 503 -512 345 -932 769 -1252 1265
-664 1025 -907 2380 -713 3965 113 917 376 1958 822 3250 58 168 112 314 120
326 16 26 40 105 177 609 261 952 458 1756 521 2119 46 269 43 377 -10 458
-14 20 -22 44 -19 52 6 17 8 16 -123 44 l-82 17 -51 73 c-28 39 -52 72 -55 72
-2 0 -26 -23 -52 -51 l-49 -52 -270 51 c-388 74 -529 99 -751 132 -917 136
-1717 91 -2418 -137 -287 -93 -545 -208 -851 -380 -342 -192 -561 -263 -808
-263 -364 0 -649 207 -872 633 -74 143 -130 288 -208 537 -132 420 -320 1001
-610 1882 -456 1383 -596 1821 -827 2573 l-83 270 -1 170 c0 148 5 202 38 415
21 135 40 255 43 268 3 17 24 32 76 57 l72 35 70 -78 c39 -42 168 -180 286
-306 869 -928 1004 -1082 1491 -1697 322 -406 687 -772 1025 -1027 474 -357
986 -571 1549 -648 183 -25 596 -25 790 0 430 55 775 150 1275 351 374 150
575 219 905 310 188 52 493 123 690 160 84 16 227 55 355 96 596 194 1139 309
1643 350 191 15 631 6 787 -16 389 -54 739 -172 1010 -340 295 -183 523 -407
726 -711 612 -917 809 -2434 569 -4379 -14 -110 -32 -234 -40 -275 -8 -41 -21
-136 -30 -210 -194 -1678 -529 -3352 -913 -4550 -257 -805 -559 -1454 -858
-1845 -125 -163 -136 -185 -132 -266 4 -85 38 -137 111 -174 87 -43 183 -27
251 41 38 39 158 198 233 309 613 916 1147 2656 1528 4976 62 378 141 927 180
1254 15 121 28 221 30 223 2 2 276 71 610 153 422 104 611 146 623 140 40 -21
606 -223 947 -337 2009 -676 3876 -1099 5420 -1228 495 -42 1196 -54 1560 -28
940 69 1639 260 2204 602 218 132 461 326 599 480 67 75 82 107 82 180 0 127
-83 210 -210 210 -75 0 -108 -19 -196 -110 -544 -565 -1385 -870 -2599 -941
-391 -23 -1075 -3 -1575 46 -1417 139 -3152 533 -4935 1122 -344 113 -698 237
-941 327 l-150 56 -136 134 c-122 121 -247 272 -291 351 -10 17 -93 278 -186
580 l-169 550 -21 295 c-41 584 -65 1026 -82 1540 -14 428 -6 1480 16 1955 22
470 31 1603 16 1905 -38 753 -133 1349 -305 1900 -231 741 -623 1413 -1142
1960 -39 41 -76 85 -83 97 -15 29 -14 85 2 107 12 17 17 16 96 -4 46 -11 169
-49 275 -82 220 -71 279 -78 359 -39 88 43 147 152 133 245 -4 22 -50 186
-102 364 -91 309 -95 324 -80 347 10 14 26 25 39 25 12 0 159 -71 327 -157
248 -128 313 -157 355 -161 105 -9 199 42 241 131 29 64 30 95 8 514 -15 299
-15 307 4 332 13 18 30 27 53 29 32 2 56 -18 425 -361 275 -256 404 -369 433
-380 83 -34 184 -17 251 41 73 62 78 79 110 424 23 242 33 317 47 341 21 37
93 77 138 77 39 0 94 -28 117 -60 10 -14 157 -433 327 -931 170 -499 316 -920
324 -936 23 -44 90 -100 134 -112 81 -23 116 -15 554 129 235 77 430 140 434
140 12 0 35 -69 28 -87 -4 -10 -47 -72 -96 -138 -546 -732 -889 -1554 -1016
-2440 -71 -490 -80 -1119 -25 -1700 51 -543 113 -922 334 -2045 106 -539 162
-835 195 -1029 9 -52 25 -111 35 -131 26 -50 91 -107 139 -120 39 -10 1097
-19 6153 -51 l1917 -13 58 30 c129 66 172 224 93 347 -52 82 -60 85 -591 211
-1086 258 -1549 350 -2147 425 -467 60 -753 133 -1129 292 -1178 498 -2094
1512 -2313 2560 -18 89 -27 151 -65 484 -16 133 -38 265 -119 685 -78 409
-103 706 -77 913 57 450 300 758 801 1011 166 85 208 114 263 185 166 215 228
477 302 1291 173 1883 687 3403 1530 4525 189 251 318 399 564 645 236 236
419 397 646 567 634 476 1388 857 2270 1146 754 248 1415 384 2115 437 184 14
910 4 1090 -14z m-21050 -18251 c0 -3 -12 -65 -26 -137 -71 -367 -247 -1073
-485 -1943 l-109 -401 -493 -494 -493 -495 -68 -165 c-182 -435 -390 -884
-511 -1095 -144 -255 -321 -488 -457 -604 -303 -259 -595 -273 -1039 -50 -256
128 -453 268 -904 639 -321 265 -698 565 -1150 915 -1280 991 -1492 1159
-1888 1488 -299 249 -361 326 -557 690 -52 94 -117 215 -145 267 l-52 95 40
60 40 61 821 -223 c452 -123 1105 -302 1451 -398 945 -262 1230 -326 1680
-381 181 -22 568 -30 734 -15 883 78 1541 496 2108 1338 205 303 345 391 1123
701 124 49 254 103 290 120 63 29 90 37 90 27z"/>
<path d="M77280 94718 c-59 -31 -98 -82 -112 -149 -10 -47 -9 -64 6 -110 60
-186 217 -403 379 -525 348 -261 796 -311 1354 -150 124 36 337 115 330 122
-2 3 -53 -4 -113 -15 -274 -49 -610 -54 -807 -12 -326 71 -555 239 -671 493
-18 40 -39 98 -46 128 -7 30 -17 72 -22 93 -28 117 -184 183 -298 125z"/>
<path d="M21327 57586 c-12 -13 -35 -64 -51 -112 -103 -320 -1056 -3146 -1464
-4344 -2101 -6167 -4082 -11663 -5177 -14360 -121 -298 -112 -282 -577 -1113
l-43 -77 -7 122 c-14 251 -21 2722 -9 3468 31 1966 96 4196 196 6725 53 1335
65 1555 100 1930 57 611 59 656 60 1025 0 328 -2 365 -23 483 -46 252 -118
458 -226 640 -128 218 -350 478 -447 525 -55 27 -127 29 -176 5 -89 -42 -295
-390 -418 -703 -106 -272 -236 -707 -370 -1240 -137 -547 -161 -628 -404
-1371 -409 -1256 -823 -2538 -1406 -4364 -169 -528 -439 -1372 -600 -1875
-593 -1850 -1183 -3704 -2072 -6510 l-318 -1005 0 -105 c1 -131 25 -222 99
-375 100 -207 272 -441 476 -646 128 -130 201 -179 266 -179 56 0 68 16 108
146 807 2567 2403 7593 3020 9510 675 2098 1338 4135 1343 4130 2 -2 -5 -248
-17 -547 -137 -3692 -191 -6991 -140 -8689 5 -190 15 -500 20 -690 26 -859 84
-1399 186 -1722 164 -517 444 -953 690 -1075 68 -33 86 -38 168 -41 74 -3 102
0 150 17 164 57 315 197 473 436 244 369 541 1049 841 1925 123 360 141 409
274 745 822 2085 2082 5554 3429 9442 96 276 175 498 177 494 1 -4 -20 -138
-48 -297 -277 -1582 -589 -3548 -820 -5174 -87 -611 -138 -991 -285 -2115 -20
-148 -83 -580 -140 -960 -203 -1339 -240 -1648 -302 -2475 -22 -299 -25 -1166
-5 -1390 56 -620 161 -1148 304 -1530 147 -392 314 -704 492 -918 273 -328
665 -512 1039 -488 366 23 903 267 1392 631 382 284 754 658 1181 1190 483
601 947 1342 1018 1626 95 375 41 672 -157 877 -67 69 -118 96 -182 96 -106 1
-195 -83 -320 -301 -346 -601 -921 -1327 -1555 -1964 -330 -332 -546 -512
-795 -665 -416 -254 -704 -290 -933 -117 -113 86 -282 426 -357 717 -68 267
-78 445 -50 956 135 2499 406 4866 835 7300 38 217 104 607 145 865 591 3674
1409 8057 2173 11650 106 500 117 559 116 650 0 88 -5 113 -37 208 -20 60 -62
158 -93 219 -148 289 -491 726 -618 787 -57 28 -101 27 -129 -3z"/>
<path d="M113960 55036 c-118 -34 -252 -116 -411 -253 -195 -168 -316 -309
-377 -441 -33 -72 -42 -183 -19 -245 41 -108 73 -281 86 -455 17 -216 -15
-459 -105 -808 -169 -660 -389 -1239 -914 -2409 -231 -514 -284 -640 -333
-780 -90 -258 -484 -1277 -807 -2085 -797 -1991 -1553 -3730 -2562 -5890 -589
-1259 -1251 -2586 -1662 -3330 -54 -96 -256 -494 -450 -885 -367 -739 -446
-886 -601 -1120 -196 -294 -343 -473 -482 -586 -129 -103 -431 -234 -526 -227
-37 3 -44 8 -64 43 -61 107 -110 361 -154 800 -40 401 -30 575 62 1135 45 276
47 284 204 1090 63 322 151 781 195 1020 45 239 164 869 265 1400 658 3454
850 4682 1054 6735 74 743 105 1369 105 2125 0 630 -21 927 -99 1380 -192
1107 -517 1897 -1033 2510 -95 113 -315 330 -427 420 -385 312 -918 546 -1449
635 -231 38 -384 48 -655 42 -329 -8 -594 -42 -996 -129 -1020 -219 -2252
-732 -3344 -1393 -1050 -635 -2367 -1590 -3445 -2497 -1149 -968 -2257 -2115
-3268 -3383 -1673 -2099 -2707 -4141 -3093 -6107 -123 -627 -160 -1069 -160
-1898 1 -560 10 -789 50 -1230 45 -484 129 -1020 216 -1365 145 -575 439
-1070 765 -1284 159 -104 319 -146 533 -139 120 4 143 7 193 31 101 45 169 98
317 242 211 206 316 339 386 488 64 135 83 263 46 308 -19 23 -24 24 -158 24
-136 0 -140 1 -204 32 -146 72 -297 238 -402 442 -105 202 -233 556 -311 856
-26 99 -53 202 -61 229 -9 27 -35 144 -60 260 -223 1065 -254 2131 -94 3226
121 825 380 1694 724 2430 1212 2589 3015 4881 5245 6666 1053 843 2342 1655
3395 2139 628 288 1351 540 1912 664 587 131 1272 151 1871 56 643 -103 1196
-439 1595 -970 328 -436 586 -1075 742 -1835 44 -215 107 -600 134 -820 74
-595 80 -1209 21 -2040 -64 -895 -112 -1308 -265 -2305 -46 -302 -96 -640
-110 -750 -87 -672 -297 -1862 -670 -3800 -309 -1603 -482 -2569 -599 -3345
-20 -129 -58 -354 -85 -500 -59 -315 -90 -513 -131 -830 -75 -582 -79 -815
-19 -1255 25 -192 48 -277 106 -395 39 -79 62 -110 138 -186 75 -76 104 -98
175 -132 133 -64 214 -83 375 -89 164 -6 288 15 437 72 559 216 1111 747 1783
1714 530 763 966 1521 1584 2751 398 791 531 1075 901 1915 131 297 314 713
408 925 93 212 189 430 212 485 23 54 116 259 207 455 1254 2699 2442 5557
3333 8015 78 215 175 455 400 985 299 707 430 1039 533 1355 130 398 230 795
273 1090 26 173 26 566 1 685 -22 104 -60 216 -85 250 -46 64 -188 96 -292 66z"/>
<path d="M73211 51071 c-11 -11 -29 -48 -39 -83 -523 -1685 -974 -3173 -1296
-4281 -79 -275 -146 -501 -148 -503 -2 -2 -712 -53 -1578 -114 -1714 -121
-1595 -108 -1644 -174 -18 -23 -21 -42 -21 -124 1 -85 6 -111 38 -206 71 -206
204 -446 316 -568 60 -65 129 -114 182 -128 29 -8 316 10 1205 75 642 46 1169
83 1171 81 2 -2 -46 -176 -106 -387 -861 -3011 -1483 -6066 -1871 -9198 -16
-134 -30 -269 -30 -300 0 -62 45 -241 86 -341 103 -254 290 -519 528 -747 138
-132 219 -183 292 -183 56 0 83 19 104 75 6 17 31 186 55 377 383 3021 959
5916 1756 8828 167 609 295 1049 565 1940 l13 46 468 33 c257 18 759 54 1115
80 l647 47 -93 -96 c-157 -162 -294 -355 -439 -620 -199 -362 -313 -676 -353
-968 -21 -158 -21 -488 1 -647 48 -364 178 -715 378 -1027 l75 -117 -82 -67
c-113 -94 -178 -157 -250 -244 -168 -201 -236 -353 -236 -523 0 -100 15 -151
54 -184 27 -22 37 -25 96 -21 133 7 270 96 605 392 215 190 220 194 240 177
65 -58 280 -187 539 -323 270 -142 376 -210 471 -303 92 -89 181 -217 225
-326 40 -97 65 -318 57 -514 -6 -154 -27 -265 -121 -660 -97 -404 -123 -603
-112 -840 13 -293 97 -513 249 -652 101 -91 190 -122 354 -123 172 0 332 45
568 159 324 157 583 347 866 637 173 178 424 477 620 738 l74 100 12 -145 c25
-295 82 -522 179 -709 139 -270 306 -382 624 -421 283 -34 581 52 958 275 347
206 804 637 1123 1059 l92 122 -7 -145 c-12 -249 21 -620 76 -855 110 -476
364 -717 710 -674 156 19 456 131 681 255 263 143 489 313 832 623 313 284
780 762 873 893 93 131 163 323 148 403 -15 76 -88 135 -187 150 -183 27 -467
-178 -790 -570 -152 -186 -469 -509 -541 -552 -59 -36 -188 -73 -252 -73 -150
0 -350 230 -410 470 -39 162 -43 258 -21 520 19 219 35 332 85 585 21 110 53
288 70 395 96 593 245 1281 405 1870 96 350 96 352 90 392 -24 142 -219 93
-590 -149 -248 -162 -415 -314 -473 -430 -16 -32 -91 -219 -166 -415 -234
-614 -384 -986 -480 -1188 -52 -107 -128 -272 -170 -366 -42 -93 -115 -235
-162 -315 -47 -79 -122 -207 -167 -284 -161 -281 -268 -424 -472 -633 -169
-174 -260 -235 -389 -262 -103 -21 -230 30 -315 126 -77 88 -147 258 -170 414
-18 122 -32 717 -21 860 29 365 117 862 289 1634 139 621 143 644 139 713 -6
103 -62 139 -173 114 -192 -43 -666 -387 -824 -599 -79 -106 -97 -152 -155
-414 -30 -134 -95 -412 -145 -618 -142 -593 -238 -1046 -257 -1217 l-6 -61
-132 -134 c-102 -102 -151 -161 -211 -253 -201 -309 -287 -415 -494 -608 -341
-318 -597 -399 -726 -230 -77 101 -110 245 -110 483 1 185 15 292 71 535 146
634 157 698 157 915 0 314 -60 521 -221 767 -112 169 -174 220 -672 543 -238
154 -416 282 -505 362 l-48 44 95 139 c645 945 807 1745 488 2401 -59 122
-153 264 -225 342 l-53 58 1226 88 c1206 86 1228 88 1269 112 60 35 78 72 77
164 -1 103 -51 247 -159 459 -99 193 -192 324 -275 386 -109 79 153 91 -2695
-119 -1398 -103 -2549 -186 -2557 -184 -12 2 3 62 74 298 140 465 519 1697
739 2402 137 441 203 667 209 719 22 193 -62 446 -235 704 -177 265 -450 559
-588 633 -52 28 -110 29 -136 3z m2119 -6886 c61 -102 127 -240 166 -350 26
-76 28 -90 28 -250 0 -172 -18 -298 -58 -410 l-14 -40 -35 75 c-80 171 -146
400 -172 598 -19 141 -19 240 0 362 8 52 15 99 15 103 0 19 22 -9 70 -88z"/>
<path d="M125963 51068 c-37 -39 -894 -2842 -1338 -4378 -76 -261 -140 -478
-144 -482 -4 -4 -710 -57 -1570 -118 -859 -60 -1574 -113 -1587 -116 -33 -8
-71 -56 -85 -107 -25 -94 21 -276 126 -492 136 -281 280 -450 411 -484 32 -9
282 7 1204 74 640 46 1166 82 1168 80 3 -2 -41 -163 -96 -357 -845 -2956
-1450 -5891 -1841 -8928 -82 -637 -80 -599 -47 -732 76 -310 237 -584 524
-889 97 -104 217 -203 277 -230 58 -27 126 -25 152 4 45 49 39 15 113 597 403
3156 1057 6317 1945 9410 108 375 312 1061 352 1180 l18 55 2955 212 c2830
204 2957 214 2999 235 72 37 86 65 85 166 -1 111 -39 228 -140 432 -151 303
-285 454 -421 476 -22 3 -1184 -78 -2582 -181 -1398 -104 -2544 -185 -2548
-182 -9 9 353 1199 829 2727 l201 645 1 110 c0 172 -55 344 -178 550 -147 246
-451 595 -611 702 -73 47 -140 56 -172 21z"/>
<path d="M46403 50915 c-212 -59 -636 -365 -789 -568 -88 -117 -100 -154 -170
-491 -405 -1952 -740 -4056 -879 -5506 -112 -1182 -136 -2423 -70 -3555 15
-249 38 -546 51 -667 l6 -56 -60 -31 c-148 -75 -353 -263 -561 -516 -141 -171
-463 -501 -532 -545 -92 -60 -236 -92 -315 -71 -65 18 -133 70 -200 154 -80
101 -116 170 -148 278 -41 144 -51 263 -37 456 20 261 38 397 85 642 25 124
61 327 81 451 100 618 243 1272 425 1935 77 281 81 316 38 362 -21 23 -28 25
-88 20 -82 -5 -181 -46 -336 -138 -334 -198 -547 -382 -618 -533 -19 -39 -73
-174 -122 -301 -272 -716 -428 -1103 -505 -1257 -27 -54 -85 -179 -129 -278
-106 -240 -145 -317 -255 -500 -50 -85 -131 -222 -179 -303 -208 -353 -522
-696 -713 -778 -119 -51 -226 -43 -330 26 -137 91 -245 327 -259 565 -14 247
-21 651 -13 771 15 216 99 759 169 1091 92 439 253 1156 263 1173 6 11 31 54
54 95 57 98 94 216 96 303 2 65 0 70 -27 94 -66 57 -169 27 -876 -254 -858
-341 -1854 -805 -2624 -1222 l-168 -91 -84 75 c-98 90 -223 225 -323 350 -128
161 -219 379 -243 587 -35 293 96 612 357 873 224 225 479 343 839 390 105 13
128 20 198 57 220 118 436 332 588 584 135 223 165 376 81 418 -47 24 -89 26
-213 10 -766 -94 -1459 -436 -2018 -994 -395 -393 -663 -825 -836 -1346 -161
-487 -151 -838 36 -1219 80 -163 225 -378 365 -541 l35 -41 -145 -111 c-397
-307 -774 -650 -1001 -912 -323 -373 -582 -796 -657 -1074 -28 -106 -30 -299
-3 -396 64 -235 255 -417 573 -545 261 -106 539 -140 810 -99 311 46 730 232
1073 477 370 264 747 673 974 1057 89 149 232 426 262 506 114 304 124 679 24
984 -30 93 -91 222 -145 306 l-33 51 97 48 c597 299 1781 826 1781 794 0 -13
-65 -292 -174 -749 -164 -687 -227 -1017 -258 -1345 -19 -207 -16 -754 5 -901
47 -333 161 -615 312 -768 144 -147 328 -211 605 -210 217 0 358 39 635 174
172 84 324 180 476 302 325 259 600 541 841 863 90 119 108 142 94 118 -14
-25 -8 -494 9 -643 30 -273 91 -524 163 -665 72 -143 188 -265 304 -320 144
-67 286 -65 508 7 560 182 981 484 1743 1251 174 176 319 318 321 316 1 -2 11
-51 20 -109 25 -148 91 -405 136 -530 84 -236 253 -578 364 -739 223 -324 588
-527 982 -548 275 -14 554 58 863 224 403 216 716 524 1120 1103 153 218 314
472 416 655 144 257 404 779 416 834 40 186 -82 212 -355 75 -234 -117 -461
-270 -582 -391 -78 -78 -105 -119 -214 -323 -137 -258 -262 -440 -410 -594
-251 -263 -513 -366 -738 -290 -383 128 -716 665 -896 1444 -117 510 -173
1049 -197 1915 -15 556 -3 835 81 1960 154 2053 442 4140 866 6269 59 295 93
489 89 506 -15 68 -97 95 -202 65z m-10471 -10582 c230 -306 369 -625 385
-883 7 -119 -10 -183 -70 -272 -99 -145 -279 -242 -551 -298 -204 -42 -387
-35 -558 20 -325 104 -437 312 -327 607 70 185 320 437 669 673 130 88 371
240 381 240 3 0 35 -39 71 -87z"/>
<path d="M30305 45670 c-160 -25 -312 -106 -512 -274 -221 -184 -423 -439
-605 -763 -194 -346 -316 -667 -364 -959 -26 -153 -26 -571 -1 -729 22 -144
67 -324 112 -455 47 -136 186 -418 269 -544 52 -79 63 -102 54 -113 -6 -8 -60
-55 -119 -104 -108 -89 -221 -214 -297 -326 -122 -179 -169 -369 -127 -511 21
-71 51 -92 130 -92 55 0 75 6 154 45 122 62 218 134 465 353 202 179 210 185
232 171 13 -8 61 -39 106 -70 105 -71 247 -152 463 -266 231 -121 345 -194
428 -272 96 -90 160 -177 218 -297 44 -90 51 -113 65 -220 8 -65 16 -186 16
-269 2 -178 -10 -248 -113 -690 -84 -360 -105 -476 -119 -668 -32 -452 101
-812 345 -935 108 -54 277 -68 431 -36 273 56 652 255 969 510 222 178 476
454 814 884 158 201 293 391 518 727 205 308 253 395 253 459 0 97 -70 99
-254 5 -286 -145 -506 -350 -692 -645 -111 -176 -214 -305 -354 -447 -258
-259 -469 -397 -624 -407 -59 -4 -79 -1 -113 16 -85 44 -142 140 -173 294 -51
247 -32 455 85 948 61 254 101 455 116 580 16 138 6 364 -21 495 -47 225 -182
476 -332 621 -64 62 -179 142 -522 366 -244 159 -427 290 -523 375 l-43 38 96
140 c287 419 483 822 579 1190 51 197 60 276 59 515 -1 247 -12 327 -74 513
-114 339 -360 646 -625 779 -113 57 -264 85 -370 68z m-287 -1492 c66 -111
113 -209 157 -328 24 -66 28 -94 32 -225 3 -89 1 -180 -6 -225 -12 -80 -49
-237 -60 -258 -4 -7 -25 29 -51 90 -92 218 -147 430 -171 655 -10 103 -10 135
6 255 10 76 21 138 25 138 3 0 34 -46 68 -102z"/>
<path d="M129105 45257 c-120 -49 -195 -171 -195 -317 0 -182 187 -491 453
-747 299 -288 590 -433 924 -462 406 -35 763 92 1050 374 113 111 153 177 153
254 0 139 -171 225 -315 157 -27 -12 -77 -46 -110 -75 -73 -63 -173 -114 -280
-143 -68 -18 -106 -22 -255 -22 -149 0 -187 4 -255 22 -155 43 -269 108 -392
225 -139 132 -210 250 -257 425 -13 48 -30 102 -39 118 -26 50 -114 123 -194
162 -69 32 -87 37 -168 39 -54 2 -102 -2 -120 -10z"/>
<path d="M113289 44925 c-149 -28 -338 -109 -857 -369 -348 -174 -374 -192
-389 -264 -26 -123 11 -283 109 -476 163 -318 362 -516 518 -516 15 0 167 71
341 159 173 88 397 195 499 240 102 44 203 89 224 99 38 19 40 19 70 2 104
-60 160 -24 217 140 28 82 30 216 6 310 -35 132 -141 323 -252 454 -66 77
-190 180 -250 207 -57 25 -147 31 -236 14z"/>
<path d="M64967 44738 c-14 -11 -127 -457 -489 -1928 -465 -1888 -472 -1914
-502 -1940 -17 -14 -85 -74 -151 -135 -878 -804 -1568 -1226 -2210 -1352 -68
-14 -139 -18 -295 -18 -190 0 -213 2 -313 27 -327 83 -580 259 -776 538 l-41
58 108 75 c624 431 1278 1128 1680 1789 306 503 470 1017 449 1404 -16 291
-124 430 -343 442 -45 2 -113 -1 -150 -7 -327 -57 -912 -390 -1404 -799 -257
-215 -633 -618 -855 -916 -307 -414 -589 -934 -713 -1317 -128 -394 -146 -832
-47 -1173 83 -288 239 -542 480 -781 143 -143 267 -233 430 -314 262 -130 542
-184 830 -161 459 38 1200 301 1715 610 326 196 822 555 1248 903 74 60 131
100 128 90 -3 -10 -60 -238 -127 -508 -111 -452 -120 -495 -116 -561 9 -126
90 -326 228 -560 202 -344 342 -458 443 -361 19 17 107 156 197 307 671 1135
1547 2523 1944 3080 236 331 396 522 402 480 1 -8 14 -109 28 -225 113 -910
199 -1304 350 -1605 102 -204 302 -448 465 -567 139 -101 336 -193 505 -234
126 -31 335 -31 450 0 179 48 340 147 511 316 275 272 474 632 608 1099 99
343 120 545 65 605 -31 33 -89 29 -134 -10 -54 -47 -79 -99 -128 -264 -76
-252 -155 -410 -294 -590 -135 -174 -358 -365 -496 -424 -132 -57 -289 -68
-412 -30 -270 82 -435 262 -594 644 -99 237 -116 309 -251 1101 -116 676 -156
830 -294 1134 -112 247 -223 383 -371 456 -77 38 -81 39 -189 39 -105 0 -115
-2 -180 -33 -142 -67 -287 -195 -468 -412 -250 -301 -385 -504 -697 -1048 -52
-89 -96 -161 -98 -159 -2 2 121 505 274 1118 309 1245 302 1208 255 1353 -61
183 -214 411 -415 615 -134 136 -201 177 -240 149z m-3642 -2188 c34 -33 55
-86 55 -142 0 -167 -221 -551 -535 -928 -105 -125 -430 -456 -576 -585 -137
-121 -267 -220 -276 -211 -11 10 15 271 38 381 46 227 146 468 276 665 164
248 432 554 618 705 115 93 178 131 245 148 68 18 112 8 155 -33z"/>
<path d="M55381 44621 c-11 -11 -24 -35 -29 -53 -5 -18 -41 -143 -80 -278
-525 -1824 -1023 -3902 -1411 -5890 -432 -2209 -882 -4964 -1276 -7799 -46
-334 -48 -380 -17 -486 50 -168 214 -410 407 -601 135 -133 217 -165 268 -105
30 36 27 24 77 406 484 3724 1216 7707 2083 11320 l52 219 33 7 c44 9 54 19
103 102 24 40 91 144 150 232 330 495 753 945 1247 1327 216 167 426 252 617
251 129 -1 155 -15 262 -131 48 -53 98 -107 111 -120 47 -48 78 -279 69 -512
-6 -148 -31 -382 -46 -422 -4 -13 -44 -31 -131 -62 -300 -104 -705 -294 -978
-459 -511 -309 -968 -704 -1276 -1101 -157 -203 -233 -346 -283 -533 -24 -88
-27 -115 -27 -273 0 -195 11 -259 68 -410 64 -171 178 -332 358 -506 149 -143
299 -252 453 -329 180 -90 253 -108 435 -109 127 -1 158 3 253 27 288 75 480
189 723 432 168 168 281 312 413 528 320 520 547 1060 661 1567 18 80 41 174
51 209 10 35 19 83 19 105 0 23 7 86 15 141 57 396 36 832 -60 1221 -123 500
-328 878 -660 1220 -22 23 -62 74 -90 115 -68 100 -221 251 -330 325 -188 128
-291 163 -495 171 -101 4 -157 1 -223 -11 -169 -32 -364 -116 -542 -233 -91
-60 -287 -212 -300 -232 -12 -20 -22 -11 -35 32 -65 217 -366 608 -532 691
-62 31 -82 32 -107 7z m2098 -4192 c-176 -352 -489 -669 -828 -838 -111 -56
-269 -117 -278 -108 -9 10 157 251 250 362 207 246 473 457 772 612 66 34 121
60 123 58 2 -1 -16 -41 -39 -86z"/>
<path d="M23855 43974 c-224 -49 -454 -164 -700 -349 -415 -312 -858 -803
-1169 -1294 -340 -539 -532 -1051 -632 -1686 -21 -138 -30 -464 -15 -606 51
-497 278 -1009 654 -1477 189 -235 345 -374 512 -457 127 -63 220 -85 368 -85
415 0 796 207 1359 736 340 321 570 593 840 993 l118 175 0 -45 c0 -176 85
-616 166 -854 98 -292 271 -477 500 -535 96 -25 266 -27 385 -4 457 85 1098
481 1879 1159 280 243 407 379 514 548 78 125 99 185 94 273 -6 133 -85 202
-218 191 -149 -12 -329 -127 -601 -384 -436 -409 -575 -521 -799 -643 -104
-56 -193 -90 -238 -90 -48 0 -183 39 -229 66 -72 42 -167 178 -207 296 -79
236 -156 1396 -157 2353 0 198 1 394 2 435 3 83 -20 167 -74 275 -131 264
-480 655 -583 655 -12 0 -27 -6 -34 -14 -6 -8 -29 -91 -50 -185 -36 -157 -80
-333 -116 -459 l-16 -53 -70 103 c-356 517 -693 829 -1016 939 -90 30 -107 33
-247 36 -107 2 -170 -2 -220 -13z m792 -1129 c47 -9 111 -31 163 -57 111 -54
224 -166 333 -330 l78 -117 -84 -213 c-526 -1330 -1236 -2231 -2162 -2741
-353 -195 -625 -247 -765 -146 -186 135 -171 507 49 1165 166 497 370 886 690
1314 184 247 423 505 641 693 264 228 538 388 735 430 91 20 224 21 322 2z"/>
<path d="M117690 43971 c-333 -74 -680 -295 -1084 -691 -439 -431 -757 -862
-1016 -1379 -250 -500 -406 -1099 -415 -1599 l-3 -183 -43 -72 c-208 -352
-498 -692 -840 -983 -296 -253 -571 -400 -918 -491 -164 -43 -249 -46 -446
-13 -71 11 -172 23 -223 25 -55 3 -105 11 -122 20 l-30 16 0 97 c0 126 16 396
35 592 73 745 276 1512 582 2197 55 125 57 130 57 218 -1 105 -29 202 -96 325
-114 210 -366 518 -467 569 -50 26 -102 27 -125 3 -53 -59 -326 -764 -436
-1127 -252 -832 -347 -1420 -311 -1920 33 -453 116 -792 272 -1104 323 -649
790 -991 1389 -1018 285 -13 549 52 871 213 459 229 929 614 1244 1017 50 64
92 116 95 116 3 0 19 -21 36 -47 120 -183 355 -444 491 -546 176 -132 328
-186 523 -186 438 0 841 225 1434 800 320 310 592 642 823 1001 l58 91 7 -48
c4 -27 16 -121 28 -209 37 -290 119 -606 199 -770 102 -209 226 -324 421 -391
45 -16 84 -19 215 -19 142 0 173 3 270 28 451 114 1018 471 1757 1105 353 303
504 470 604 667 73 144 72 243 -3 326 -103 114 -307 61 -568 -150 -43 -35
-167 -146 -275 -247 -386 -361 -545 -484 -776 -600 -106 -54 -121 -59 -182
-59 -98 0 -210 37 -269 89 -55 49 -134 165 -162 242 -56 148 -105 620 -141
1354 -25 518 -37 1227 -23 1426 6 99 -11 175 -67 292 -82 172 -237 379 -406
542 -125 121 -198 158 -223 112 -5 -9 -25 -89 -45 -177 -38 -169 -123 -495
-131 -503 -3 -3 -6 -3 -8 -1 -2 2 -46 65 -98 139 -343 494 -668 785 -996 896
-107 36 -334 44 -463 15z m865 -1141 c162 -50 284 -154 426 -361 l85 -125 -61
-160 c-199 -514 -446 -1003 -699 -1383 -396 -595 -865 -1052 -1398 -1365 -149
-87 -353 -182 -452 -211 -547 -157 -666 205 -371 1125 95 295 240 632 374 865
214 373 535 787 817 1052 362 341 650 525 904 579 96 20 286 12 375 -16z"/>
<path d="M128700 43974 c-181 -39 -379 -128 -573 -258 -441 -294 -952 -840
-1294 -1381 -347 -550 -536 -1056 -634 -1695 -18 -115 -22 -189 -23 -360 0
-246 15 -376 69 -586 46 -178 91 -298 190 -499 253 -517 645 -976 951 -1111
194 -86 454 -87 706 -3 207 69 454 216 678 404 480 403 815 771 1138 1253 64
95 118 170 119 165 1 -4 9 -73 18 -153 19 -173 54 -358 100 -535 100 -384 225
-578 441 -683 99 -49 146 -57 314 -57 138 0 167 3 264 28 490 128 1084 512
1892 1223 207 183 298 281 395 427 82 124 117 201 126 277 16 138 -85 240
-225 227 -83 -7 -156 -39 -273 -116 -123 -82 -157 -110 -400 -337 -353 -329
-509 -454 -704 -563 -197 -109 -242 -117 -400 -71 -73 22 -86 30 -145 89 -138
139 -180 274 -224 726 -58 584 -106 1958 -81 2276 10 115 -28 236 -121 392
-102 169 -332 439 -445 523 -54 39 -109 54 -126 32 -5 -7 -27 -87 -47 -178
-45 -207 -126 -510 -136 -510 -4 0 -29 33 -55 73 -27 39 -80 115 -118 167
-341 462 -672 736 -978 810 -101 24 -298 26 -399 4z m870 -1151 c161 -55 275
-155 411 -357 l82 -121 -18 -50 c-9 -27 -48 -127 -85 -220 -486 -1221 -1157
-2094 -2005 -2610 -436 -265 -744 -338 -912 -216 -82 60 -133 231 -118 396 34
373 211 938 430 1375 250 499 631 996 1035 1353 203 179 333 272 503 362 186
99 293 126 472 121 102 -3 133 -7 205 -33z"/>
<path d="M34931 37545 c-133 -30 -235 -101 -288 -202 -117 -219 -24 -514 186
-589 156 -56 243 -112 313 -201 157 -200 166 -398 32 -666 -80 -157 -165 -252
-314 -349 -151 -97 -205 -179 -204 -308 0 -56 5 -85 21 -116 59 -111 170 -156
313 -123 117 26 410 201 560 334 247 219 420 511 476 802 19 100 18 304 -2
401 -47 230 -168 464 -349 675 -118 137 -316 284 -441 328 -78 27 -218 34
-303 14z"/>
<path d="M122381 33875 c-144 -33 -240 -104 -298 -223 -37 -74 -38 -79 -38
-181 1 -119 19 -185 75 -266 43 -62 92 -96 204 -139 166 -65 270 -156 341
-301 64 -128 69 -238 19 -395 -71 -226 -186 -380 -374 -502 -47 -30 -102 -74
-124 -98 -159 -177 -84 -438 132 -457 121 -11 261 45 487 195 295 197 493 437
612 746 92 237 97 511 16 754 -75 225 -257 496 -438 653 -90 79 -242 174 -314
199 -84 28 -215 35 -300 15z"/>
</g>
</svg>
